<svg xmlns="http://www.w3.org/2000/svg" viewBox="0 0 100 100" width="512" height="512"><g transform="translate(-2.00,1.00) scale(1.040)" transform-origin="50 50"><path d="M 60.15,54.03 A 21.04,21.04 0 0,1 36.49,77.38 A 21.04,21.04 0 0,1 60.15,54.03 Z" fill="#242925"/>
<path d="M 41.48,83.73 L 41.23,82.40 L 41.03,81.06 L 40.85,79.73 L 40.71,78.39 L 40.61,77.06 L 40.54,75.73 L 40.50,74.39 L 40.49,73.06 L 40.52,71.74 L 40.58,70.41 L 40.66,69.09 L 40.79,67.77 L 40.94,66.46 L 41.12,65.15 L 41.33,63.85 L 41.57,62.55 L 41.84,61.26 L 42.14,59.97 L 42.46,58.69 L 42.82,57.42 L 43.20,56.15 L 43.61,54.89 L 44.05,53.64 L 44.51,52.40 L 45.00,51.17 L 45.51,49.95 L 46.05,48.74 L 46.62,47.54 L 47.20,46.35 L 47.82,45.18 L 48.45,44.01 L 49.11,42.86 L 49.79,41.72 L 50.49,40.60 L 51.22,39.48 L 51.97,38.39 L 52.73,37.30 L 53.52,36.24 L 54.33,35.19 L 55.16,34.15 L 56.01,33.13 L 56.87,32.13 L 57.76,31.15 L 58.66,30.18 L 59.58,29.23 L 60.52,28.31 L 61.47,27.40 L 62.44,26.51 L 61.56,25.49 L 60.54,26.37 L 59.54,27.28 L 58.56,28.20 L 57.60,29.14 L 56.65,30.10 L 55.72,31.09 L 54.81,32.09 L 53.91,33.11 L 53.04,34.15 L 52.18,35.20 L 51.35,36.27 L 50.53,37.36 L 49.74,38.47 L 48.96,39.59 L 48.21,40.73 L 47.48,41.88 L 46.78,43.05 L 46.09,44.23 L 45.43,45.42 L 44.79,46.63 L 44.18,47.86 L 43.59,49.09 L 43.03,50.34 L 42.49,51.60 L 41.98,52.87 L 41.49,54.15 L 41.04,55.44 L 40.61,56.74 L 40.20,58.05 L 39.83,59.37 L 39.49,60.71 L 39.17,62.04 L 38.89,63.39 L 38.63,64.75 L 38.41,66.11 L 38.21,67.48 L 38.05,68.85 L 37.93,70.23 L 37.83,71.62 L 37.77,73.01 L 37.74,74.41 L 37.74,75.81 L 37.78,77.21 L 37.86,78.62 L 37.97,80.03 L 38.12,81.44 L 38.30,82.85 L 38.52,84.27 Z" fill="#35A46F"/>
<path d="M 28.69,32.09 A 19.72,19.72 0 0,1 43.60,59.60 A 19.72,19.72 0 0,1 28.69,32.09 Z" fill="#242925"/>
<path d="M 59.01,55.16 A 20.52,20.52 0 0,1 37.62,76.26 A 20.52,20.52 0 0,1 59.01,55.16 Z" fill="#35A46F"/>
<path d="M 75.39,35.14 A 18.40,18.40 0 0,1 46.53,40.44 A 18.40,18.40 0 0,1 75.39,35.14 Z" fill="#242925"/>
<path d="M 29.45,33.50 A 19.18,19.18 0 0,1 42.84,58.19 A 19.18,19.18 0 0,1 29.45,33.50 Z" fill="#35A46F"/>
<path d="M 63.18,1.94 A 17.08,17.08 0 0,1 61.84,29.29 A 17.08,17.08 0 0,1 63.18,1.94 Z" fill="#242925"/>
<path d="M 73.81,35.43 A 17.85,17.85 0 0,1 48.11,40.15 A 17.85,17.85 0 0,1 73.81,35.43 Z" fill="#35A46F"/>
<path d="M 79.63,10.58 A 16.27,16.27 0 0,1 59.93,27.81 A 16.27,16.27 0 0,1 79.63,10.58 Z" fill="#242925"/>
<path d="M 63.10,3.54 A 16.51,16.51 0 0,1 61.92,27.69 A 16.51,16.51 0 0,1 63.10,3.54 Z" fill="#35A46F"/>
<path d="M 78.42,11.63 A 15.69,15.69 0 0,1 61.14,26.76 A 15.69,15.69 0 0,1 78.42,11.63 Z" fill="#35A46F"/></g></svg>